<svg
    viewBox="0 0 1080 1080"
    version="1.1"
    xmlns="http://www.w3.org/2000/svg">
  <g id="substrated">
    <path
        fill="#e2e2e2"
        d="M540,135L1080,906L0,906L540,135ZM296.705,795.046L268.94,800.587C252.03,803.961 241.041,820.43 244.416,837.34C247.79,854.25 264.259,865.239 281.169,861.865L705.023,777.278C705.008,777.886 705,778.496 705,779.108C705,819.465 738.885,852.231 780.623,852.231C822.36,852.231 856.246,819.465 856.246,779.108C856.246,768.176 853.759,757.802 849.304,748.484L853.654,747.616C870.564,744.242 881.553,727.773 878.179,710.863C878.13,710.619 878.078,710.375 878.024,710.134C877.543,705.562 875.929,701.047 873.107,697.019L562.393,253.446C553.514,240.77 536.014,237.688 523.339,246.567C510.663,255.446 507.581,272.945 516.46,285.621L802.585,694.09L426.87,769.069C427.493,765.316 427.818,761.462 427.818,757.534C427.818,718.624 396.004,687.034 356.818,687.034C317.632,687.034 285.818,718.624 285.818,757.534C285.818,771.316 289.809,784.179 296.705,795.046ZM434.463,377.233L167.506,765.136C159.538,776.713 162.469,792.581 174.046,800.549C185.624,808.516 201.492,805.586 209.459,794.008L443.427,454.04C454.635,465.156 470.061,472.027 487.078,472.027C521.296,472.027 549.078,444.246 549.078,410.027C549.078,375.808 521.296,348.027 487.078,348.027C469.429,348.027 453.492,355.418 442.197,367.27C440.709,368.598 439.356,370.123 438.176,371.838L437.575,372.711C436.473,374.17 435.435,375.678 434.463,377.233Z" />
  </g>
</svg>
