<svg
        width="100%"
        height="100%"
        viewBox="0 0 1080 1080"
        version="1.1"
        xmlns="http://www.w3.org/2000/svg"
        xmlns:xlink="http://www.w3.org/1999/xlink"
        xml:space="preserve"
        xmlns:serif="http://www.serif.com/"
        style="fill-rule:evenodd;clip-rule:evenodd;stroke-linejoin:round;stroke-miterlimit:2;">
    <g id="sub2">
        <path d="M540,137L1080,908L0,908L540,137ZM173.798,794.498C173.771,798.402 174.139,802.365 174.933,806.342C181.226,837.878 211.939,858.372 243.475,852.078L769.024,747.197L817.557,816.481C835.43,841.997 870.656,848.201 896.172,830.328C921.687,812.455 927.892,777.229 910.019,751.713L597.888,306.118C580.014,280.602 544.788,274.398 519.273,292.271C493.757,310.144 487.553,345.37 505.426,370.886L695.996,642.942L347.431,712.503L509.93,476.384C526.526,452.269 520.421,419.216 496.306,402.62C472.191,386.023 439.138,392.128 422.542,416.243L188.655,756.093C183.187,762.216 179.037,769.455 176.531,777.321C174.653,782.923 173.757,788.73 173.798,794.498Z" style="fill:rgb(235,235,235);"/>
    </g>
</svg>
