<svg xmlns="http://www.w3.org/2000/svg" fill="currentColor"
  xmlns:xlink="http://www.w3.org/1999/xlink" version="1.1" x="0px" y="0px" viewBox="0 0 100 125" enable-background="new 0 0 100 100" xml:space="preserve">
  <g>
    <path fill="#inherit" d="M65.227,69.193c-2.619,0-4.75,2.122-4.75,4.738c0,2.628,2.131,4.747,4.75,4.747   c2.614,0,4.75-2.119,4.75-4.747C69.977,71.315,67.841,69.193,65.227,69.193z"/>
    <path fill="#inherit" d="M36.113,69.193c-2.618,0-4.75,2.122-4.75,4.738c0,2.628,2.13,4.747,4.75,4.747   c2.614,0,4.747-2.119,4.747-4.747C40.86,71.315,38.727,69.193,36.113,69.193z"/>
    <path fill="#inherit" d="M96.547,80.152c-1.421-10.578-7.686-40.89-19.534-40.89H57.481c0.021-0.104,0.063-0.19,0.063-0.294   c0-1.484-1.188-2.685-2.673-2.685h-2.605c0.096-1.272,0.299-2.532,0.616-3.784c1.716-6.517,7.684-6.612,12.771-9.167   c5.228-2.618,5.472-9.316,2.999-13.917c-1.272-2.373-4.883-0.265-3.613,2.121c4.57,8.521-7.092,9.072-11.863,12.804   c-3.391,2.641-4.99,7.525-5.127,11.947h-2.481c-1.473,0-2.674,1.197-2.674,2.684c0,0.104,0.054,0.19,0.064,0.294H24.313   c-11.839,0-18.114,30.312-19.523,40.806c-1.229,6.846-0.403,9.56,0.511,10.663c0.329,0.381,0.898,0.893,2.217,0.893   c2.312,0,6.867-1.54,15.612-8.494l0,0c0,0,3.16-2.603,6.125-0.664c0.052,0.021,0.106,0.062,0.159,0.085   c0.073,0.062,0.147,0.093,0.223,0.137l-0.009-0.022c1.853,1.041,3.932,1.6,6.084,1.6c3.643,0,6.91-1.577,9.188-4.067v0.021   c0,0,1.568-2.055,4.048-2.055h0.965h1.494h1.015h0.702c0.688,0.114,1.899,0.594,3.582,2.352c0.022,0.021,0.044,0.021,0.054,0.054   c2.269,2.277,5.392,3.695,8.869,3.695c2.207,0,4.369-0.594,6.252-1.692l-0.02,0.02c0,0,3.19-1.854,6.582,0.712   c0.02,0.008,0.02,0.021,0.044,0.041c8.563,6.76,13.044,8.279,15.335,8.279c1.304,0,1.887-0.512,2.207-0.893   C96.938,89.627,97.775,86.912,96.547,80.152z M71.363,44.414c1.728,0,3.126,1.41,3.126,3.126c0,1.729-1.398,3.117-3.126,3.117   c-1.706,0-3.106-1.389-3.106-3.117C68.257,45.824,69.657,44.414,71.363,44.414z M65.629,50.167c1.72,0,3.115,1.386,3.115,3.117   c0,1.718-1.396,3.118-3.115,3.118c-1.717,0-3.113-1.4-3.113-3.118C62.516,51.56,63.912,50.167,65.629,50.167z M35.696,50.167   c1.718,0,3.115,1.386,3.115,3.117c0,1.718-1.397,3.118-3.115,3.118c-1.716,0-3.104-1.4-3.104-3.118   C32.592,51.56,33.982,50.167,35.696,50.167z M29.964,44.414c1.717,0,3.115,1.41,3.115,3.126c0,1.729-1.398,3.117-3.115,3.117   c-1.716,0-3.117-1.389-3.117-3.117C26.847,45.824,28.248,44.414,29.964,44.414z M24.23,56.402c-1.727,0-3.126-1.4-3.126-3.118   c0-1.73,1.4-3.117,3.126-3.117c1.708,0,3.117,1.386,3.117,3.117C27.347,55.002,25.938,56.402,24.23,56.402z M26.847,59.021   c0-1.719,1.401-3.115,3.117-3.115c1.717,0,3.115,1.396,3.115,3.115c0,1.728-1.398,3.114-3.115,3.114   C28.248,62.135,26.847,60.744,26.847,59.021z M36.113,82.209c-4.56,0-8.278-3.711-8.278-8.277c0-4.559,3.721-8.267,8.278-8.267   c4.557,0,8.267,3.708,8.267,8.267C44.379,78.498,40.669,82.209,36.113,82.209z M65.227,82.209c-4.557,0-8.269-3.711-8.269-8.277   c0-4.559,3.712-8.267,8.269-8.267s8.268,3.708,8.268,8.267C73.494,78.498,69.783,82.209,65.227,82.209z M71.363,62.135   c-1.706,0-3.106-1.387-3.106-3.114c0-1.719,1.4-3.115,3.106-3.115c1.728,0,3.126,1.396,3.126,3.115   C74.489,60.744,73.091,62.135,71.363,62.135z M77.105,56.402c-1.715,0-3.115-1.4-3.115-3.118c0-1.73,1.4-3.117,3.115-3.117   c1.719,0,3.115,1.386,3.115,3.117C80.221,55.002,78.824,56.402,77.105,56.402z"/>
  </g>
</svg>
