<svg xmlns="http://www.w3.org/2000/svg"
  xmlns:xlink="http://www.w3.org/1999/xlink" version="1.1" x="0px" y="0px" viewBox="0 0 64 80" enable-background="new 0 0 64 64" fill="currentColor">
  <g>
    <g>
      <path d="M28,32c0-3.309-2.691-6-6-6s-6,2.691-6,6s2.691,6,6,6S28,35.309,28,32z M22,34c-1.103,0-2-0.897-2-2c0-1.103,0.897-2,2-2    s2,0.897,2,2C24,33.103,23.103,34,22,34z"/>
      <path d="M26,38h-4h-4c-3.309,0-6,2.691-6,6v4c0,1.104,0.896,2,2,2h16c1.104,0,2-0.896,2-2v-4C32,40.691,29.309,38,26,38z M28,46    H16v-2c0-1.103,0.897-2,2-2h8c1.103,0,2,0.897,2,2V46z"/>
      <path d="M56,20H40V10c0-1.104-0.896-2-2-2H26c-1.104,0-2,0.896-2,2v10H8c-1.104,0-2,0.896-2,2v32c0,1.104,0.896,2,2,2h48    c1.104,0,2-0.896,2-2V22C58,20.896,57.104,20,56,20z M28,12h8v8h-8V12z M54,52H10V24h44V52z"/>
      <path d="M34,30c0,1.104,0.896,2,2,2h14c1.104,0,2-0.896,2-2s-0.896-2-2-2H36C34.896,28,34,28.896,34,30z"/>
      <path d="M50,34H36c-1.104,0-2,0.896-2,2s0.896,2,2,2h14c1.104,0,2-0.896,2-2S51.104,34,50,34z"/>
      <path d="M50,40H36c-1.104,0-2,0.896-2,2s0.896,2,2,2h14c1.104,0,2-0.896,2-2S51.104,40,50,40z"/>
    </g>
  </g>
</svg>
