<svg version="1.0"
  xmlns="http://www.w3.org/2000/svg" viewBox="0 0 130.000000 76.000000" fill="currentColor" preserveAspectRatio="xMidYMid meet">

  <g transform="translate(0.000000,76.000000) scale(0.100000,-0.100000)" stroke="none">
    <path d="M2 498 c4 -247 5 -266 26 -313 41 -91 121 -153 220 -174 29 -6 111
-11 182 -11 l130 0 0 145 0 145 -123 0 c-107 0 -126 2 -140 18 -15 16 -17 48
-17 235 l0 217 -141 0 -141 0 4 -262z"/>
    <path d="M610 380 l0 -380 175 0 c253 0 330 22 418 120 66 74 90 142 90 260 0
118 -24 186 -90 260 -88 98 -165 120 -418 120 l-175 0 0 -380z m380 70 c15
-15 20 -33 20 -69 0 -42 -4 -53 -26 -70 -15 -12 -41 -21 -60 -21 l-34 0 0 90
0 90 40 0 c27 0 47 -7 60 -20z"/>
  </g>
</svg>
