<svg version="1.1"
  xmlns="http://www.w3.org/2000/svg"
  xmlns:xlink="http://www.w3.org/1999/xlink" x="0px" y="0px" viewBox="0 0 1000 1000" enable-background="new 0 0 1000 1000" xml:space="preserve" fill="currentColor">
  <g>
    <path d="M500,10C229.4,10,10,229.4,10,500c0,270.6,219.4,490,490,490s490-219.4,490-490S770.6,10,500,10L500,10z M500,958.9C246.5,958.9,41.1,753.5,41.1,500S246.5,41.1,500,41.1c253.5,0,458.9,205.5,458.9,458.9C958.9,753.5,753.5,958.9,500,958.9L500,958.9z M713.4,490.5L384.9,302.1c-3.5-2-7.5-2-11,0c-3.5,2-5.5,5.5-5.5,9.4v376.9c0,4,2,7.4,5.5,9.4c3.5,2,7.5,2,11,0l328.5-188.4c3.5-2,5.5-5.4,5.5-9.5C718.9,496,716.9,492.6,713.4,490.5L713.4,490.5z"/>
  </g>
</svg>
