<svg
    viewBox="0 0 12617 1453"
    xmlns="http://www.w3.org/2000/svg">
  <g
      fill="#e2e2e2"
      transform="matrix(1,0,0,1,0,-11772)">
    <g transform="matrix(0.880522,0,0,0.31457,82.7691,8558.66)">
      <rect
          id="uralys."
          x="-94"
          y="10215"
          width="14329"
          height="4619"
          style="fill:none;" />
      <g id="uralys.1">
        <g
            id="dot"
            transform="matrix(13.6804,0,0,37.3829,9560.2,3710.19)">
          <path
              d="M339.511,272.881C339.511,264.898 339.556,260.134 339.556,260.134C338.123,248.459 327.328,247.036 314.253,246.887C301.187,246.887 288.95,249.448 288.95,260.134C288.95,269.47 288.905,272.881 288.905,272.881C290.337,284.552 301.128,286.124 314.208,286.124C327.287,286.124 339.511,283.563 339.511,272.881Z"
              style="fill-rule:nonzero;" />
        </g>
        <g
            id="S"
            transform="matrix(36.5538,0,0,102.319,613.402,-14782.6)">
          <path
              d="M314.208,256.494C318.716,256.494 322.583,257.212 324.287,260.134L339.556,260.134C338.123,248.459 327.328,247.036 314.253,246.887C301.187,246.887 288.95,249.448 288.95,260.134C288.95,269.47 303.456,270.188 313.892,270.679C319.848,270.95 324.332,271.311 324.332,272.881C324.332,275.799 318.731,276.517 314.253,276.517C309.774,276.517 305.877,275.799 304.174,272.881L288.905,272.881C290.337,284.552 301.128,286.124 314.208,286.124C327.287,286.124 339.511,283.563 339.511,272.881C339.511,263.54 325.004,262.822 314.568,262.33C308.743,262.058 304.264,261.832 304.129,260.128C304.12,257.126 309.729,256.494 314.208,256.494Z"
              style="fill-rule:nonzero;" />
        </g>
        <g
            id="Y"
            transform="matrix(36.5538,0,0,102.319,613.402,-14782.6)">
          <path
              d="M255.136,262.555L244.075,247.876L228.085,247.876L247.837,273.734L247.837,285.274L262.391,285.274L262.391,273.734L282.007,247.968L266.017,247.968L255.136,262.555Z"
              style="fill-rule:nonzero;" />
        </g>
        <g
            id="L"
            transform="matrix(36.5538,0,0,102.319,613.402,-14782.6)">
          <path
              d="M199.557,273.377L199.557,247.831L184.998,247.831L184.998,285.139L224.992,285.139L224.992,273.377L199.557,273.377Z"
              style="fill-rule:nonzero;" />
        </g>
        <g
            id="A"
            transform="matrix(36.5538,0,0,102.319,-6356.68,-9476.85)">
          <path
              d="M336.6,195.974L309.819,233.327L363.251,233.327L336.6,195.974ZM336.465,216.484L340.07,221.204L332.816,221.204L336.465,216.484Z"
              style="fill-rule:nonzero;" />
        </g>
        <g
            id="R"
            transform="matrix(36.5538,0,0,102.319,-6356.68,-9476.85)">
          <path
              d="M290.693,222.776C293.061,221.63 295.075,219.861 296.519,217.659C298.038,215.407 298.835,212.743 298.803,210.025C298.788,202.247 292.504,195.946 284.745,195.929L248.774,195.929L248.774,233.224L263.331,233.224L263.331,224.122L276.277,224.122L283.304,233.224L298.803,233.224L290.693,222.776ZM281.11,213.169L263.419,213.169L263.419,206.882L281.11,206.882C282.842,207.068 284.096,208.626 283.91,210.362C283.752,211.842 282.586,213.011 281.11,213.169L281.11,213.169Z"
              style="fill-rule:nonzero;" />
        </g>
        <g
            id="U"
            transform="matrix(36.5538,0,0,102.319,-6356.68,-9476.85)">
          <path
              d="M235.185,195.929L223.07,195.929L223.07,209.398C223.07,217.076 217.663,222.776 210.482,222.776C203.124,222.789 197.149,216.819 197.136,209.443L197.136,195.929L184.998,195.929L184.998,209.398C185.005,223.481 196.393,234.894 210.441,234.899C224.278,234.899 235.163,223.63 235.222,209.398L235.185,195.929Z"
              style="fill-rule:nonzero;" />
        </g>
      </g>
    </g>
  </g>
</svg>
